<svg width="210" height="238" xmlns="http://www.w3.org/2000/svg">
 <!-- Created with Method Draw - http://github.com/duopixel/Method-Draw/ -->

 <g>
  <title>background</title>
  <rect fill="none" id="canvas_background" height="240" width="212" y="-1" x="-1"/>
  <g display="none" overflow="visible" y="0" x="0" height="100%" width="100%" id="canvasGrid">
   <rect fill="url(#gridpattern)" stroke-width="0" y="0" x="0" height="100%" width="100%"/>
  </g>
 </g>
 <g>
  <title>Layer 1</title>
  <defs>
   <style type="text/css"/>
  </defs>
  <rect stroke="#ffffff" id="svg_9" height="63.000001" width="115" y="79.999999" x="80.5" stroke-opacity="null" stroke-width="1.5" fill="#ffffff"/>
  <rect id="svg_13" height="45" width="115" y="178" x="65.5" fill-opacity="null" stroke-opacity="null" stroke-width="1.5" stroke="#ffffff" fill="#ffffff"/>
  <rect stroke="#ffffff" transform="rotate(-5.0225911140441895 73.49999999999974,168) " id="svg_12" height="46" width="68" y="145" x="39.5" fill-opacity="null" stroke-opacity="null" stroke-width="1.5" fill="#ffffff"/>
  <rect id="svg_14" height="35" width="40" y="181" x="49.5" stroke-opacity="null" stroke-width="1.5" stroke="#ffffff" fill="#ffffff"/>
  <ellipse stroke="#ffffff" ry="29.499999" rx="14" id="svg_6" cy="131.499999" cx="26.5" stroke-width="1.5" fill="#ffffff"/>
  <rect id="svg_10" height="41" width="108" y="123" x="28.5" stroke-opacity="null" stroke-width="1.5" stroke="#ffffff" fill="#ffffff"/>
  <rect id="svg_11" height="71" width="77" y="133" x="111.5" stroke-opacity="null" stroke-width="1.5" stroke="#ffffff" fill="#ffffff"/>
  <rect id="svg_7" height="150" width="26" y="16" x="59.5" stroke-width="1.5" stroke="#ffffff" fill="#ffffff"/>
  <g stroke="null" id="svg_5">
   <path stroke="null" id="svg_4" fill="#2c2c2c" d="m208.183714,92.471266c-4.333678,-10.457353 -13.779509,-16.70251 -25.270697,-16.70251c-5.303053,0 -10.164805,1.380926 -14.37948,4.033692a27.484641,27.484641 0 0 0 -42.057501,-5.278261a27.482162,27.482162 0 0 0 -29.006883,-5.5361l0,-43.973939a25.022775,25.022775 0 0 0 -50.04555,0l0,77.453336a27.51935,27.51935 0 0 0 -43.847498,32.569523c2.352781,4.539453 34.7438,67.092672 46.433326,88.089193a26.919379,26.919379 0 0 0 2.142047,3.718831c0.131399,0.198338 0.265277,0.389238 0.409071,0.575179a26.94913,26.94913 0 0 0 21.817143,11.13418l84.419946,0c12.906823,0 21.12544,-2.377573 26.646665,-7.707897c5.47164,-5.283219 6.609603,-11.920093 7.611208,-17.773534l16.928119,-104.514031a29.666356,29.666356 0 0 0 -1.799914,-16.087664zm-15.338939,13.328291l-16.890931,104.39007c-0.743766,4.259301 -1.269361,6.941818 -2.553597,8.181429c-1.098295,1.061106 -4.462597,2.838708 -14.592693,2.838708l-84.424905,0a9.537562,9.537562 0 0 1 -7.717814,-3.897335c-0.344612,-0.599971 -0.721453,-1.266882 -1.130525,-1.983377c-0.019834,-0.049584 -0.044626,-0.09669 -0.06446,-0.146274a8.692148,8.692148 0 0 0 -1.135483,-2.015606c-12.396104,-22.466699 -45.072234,-85.565346 -45.426762,-86.25209l-0.193379,-0.352049a10.164805,10.164805 0 0 1 3.718831,-13.883636a10.164805,10.164805 0 0 1 13.861323,3.676684c0.634681,1.137962 7.883922,14.079495 11.258141,20.007312a8.677273,8.677273 0 0 0 17.238022,-1.410677l0,-109.938566a7.66823,7.66823 0 1 1 15.33646,0l0,93.593063a8.677273,8.677273 0 0 0 17.354545,0l0,-24.048441a10.164805,10.164805 0 0 1 20.32961,0l0,21.569221a8.677273,8.677273 0 0 0 17.354545,0l0,-21.569221a10.164805,10.164805 0 1 1 20.32961,0l0,21.569221a8.677273,8.677273 0 0 0 17.354545,0l0,-14.429065a13.913387,13.913387 0 0 1 2.647808,-5.159258c1.936271,-2.337905 4.29401,-3.428762 7.422787,-3.428762c5.583205,0 8.104573,3.257696 9.237577,5.989797a12.316769,12.316769 0 0 1 0.696661,6.686458l-0.009917,0.012396z"/>
  </g>
  <rect id="svg_8" height="7" width="0" y="119" x="77.5" stroke-width="1.5" stroke="#ffffff" fill="#ffffff"/>
 </g>
</svg>