<svg width="90" height="90" xmlns="http://www.w3.org/2000/svg">
 <!-- Created with Method Draw - http://github.com/duopixel/Method-Draw/ -->

 <g>
  <title>background</title>
  <rect fill="none" id="canvas_background" height="92" width="92" y="-1" x="-1"/>
  <g display="none" overflow="visible" y="0" x="0" height="100%" width="100%" id="canvasGrid">
   <rect fill="url(#gridpattern)" stroke-width="0" y="0" x="0" height="100%" width="100%"/>
  </g>
 </g>
 <g>
  <title>Layer 1</title>
  <!-- Created with Method Draw - http://github.com/duopixel/Method-Draw/ -->
  <g id="svg_15">
   <g transform="matrix(0.3074887871159347,0,0,0.2913594517942165,15.832524602243907,16.331134964855803) " id="svg_12">
    <title transform="translate(0,-0.48481035232543945) translate(0,0.6039586663246155) translate(0,-0.6039586663246155) translate(0,-0.6039586663246155) translate(0,-0.6039586663246155) translate(0,-0.6039586663246155) translate(0,-0.6039586663246155) translate(0,-16.000001907348633) translate(-20.500032424926758,0) translate(-22.499998092651367,-31.499998092651367) translate(-508.4999694824219,-301.4999694824219) translate(552.5,0) translate(0,349.9999694824219) ">background</title>
    <rect x="0" y="-2.900645" width="202" height="202" id="svg_10" fill="#fff"/>
    <g id="svg_9" display="none">
     <rect id="svg_13" width="580" height="400" x="1" y="-1.900645" stroke-width="0" fill="url(#gridpattern)"/>
    </g>
   </g>
   <g transform="matrix(0.4444444709353981,0,0,0.4444444709353981,0,0) " id="svg_14">
    <title transform="translate(0,-16.000001907348633) translate(-20.500032424926758,0) translate(-22.499998092651367,-31.499998092651367) translate(-508.4999694824219,-301.4999694824219) translate(552.5,0) translate(0,349.9999694824219) ">Layer 1</title>
    <defs transform="translate(0,-16.000001907348633) translate(-20.500032424926758,0) translate(-22.499998092651367,-31.499998092651367) translate(-508.4999694824219,-301.4999694824219) translate(552.5,0) translate(0,349.9999694824219) ">
     <style type="text/css"/>
    </defs>
    <g id="svg_7" stroke="null">
     <path d="m162.74849,35.01422l0,14.65983l-20.58976,0l0,-14.65983l-82.3153,0l0,14.65983l-20.57382,0l0,-14.65983l-20.59192,0l0,131.97156l20.59192,0l0,-14.67099l20.57382,0l0,14.67099l82.3153,0l0,-14.67099l20.58976,0l0,14.67099l20.57383,0l0,-131.97156l-20.57383,0zm-102.90506,102.64074l-20.57382,0l0,-14.65983l20.57382,0l0,14.65983zm0,-29.33024l-20.57382,0l0,-14.65906l20.57382,0l0,14.65906zm0,-29.31966l-20.57382,0l0,-14.65983l20.57382,0l0,14.65983zm102.90506,58.6499l-20.57491,0l0,-14.65983l20.57491,0l0,14.65983zm0,-29.33024l-20.57491,0l0,-14.65906l20.57491,0l0,14.65906zm0,-29.31966l-20.57491,0l0,-14.65983l20.57491,0l0,14.65983z" id="svg_8" stroke="null" stroke-width="0"/>
    </g>
   </g>
  </g>
 </g>
</svg>