<?xml version="1.0" standalone="no"?><!DOCTYPE svg PUBLIC "-//W3C//DTD SVG 1.1//EN" "http://www.w3.org/Graphics/SVG/1.1/DTD/svg11.dtd"><svg t="1621325469329" class="icon" viewBox="0 0 1024 1024" version="1.1" xmlns="http://www.w3.org/2000/svg" p-id="2465" xmlns:xlink="http://www.w3.org/1999/xlink" width="200" height="200"><defs><style type="text/css"></style></defs><path d="M513.792 197.504a312.704 312.704 0 0 0-266.666667 476.16l9.429334 15.36-58.837334 137.258667 137.258667-58.837334 15.36 9.386667a312.704 312.704 0 0 0 476.16-266.666667 312.704 312.704 0 0 0-312.746667-312.661333z m-382.208 312.746667a382.208 382.208 0 1 1 198.186667 335.061333l-104.661334 44.842667c-57.685333 24.746667-115.968-33.578667-91.306666-91.264l44.885333-104.661334a381.013333 381.013333 0 0 1-47.104-184.021333z m208.469333-69.546667c0-19.2 15.573333-34.730667 34.730667-34.730667h104.234667a34.773333 34.773333 0 0 1 0 69.504H374.784a34.773333 34.773333 0 0 1-34.730667-34.773333z m0 139.008c0-19.2 15.573333-34.730667 34.730667-34.730667H652.8a34.773333 34.773333 0 0 1 0 69.461334H374.784a34.773333 34.773333 0 0 1-34.730667-34.730667z" fill="#000000" p-id="2466"></path></svg>