<?xml version="1.0" standalone="no"?><!DOCTYPE svg PUBLIC "-//W3C//DTD SVG 1.1//EN" "http://www.w3.org/Graphics/SVG/1.1/DTD/svg11.dtd"><svg t="1618074473731" class="icon" viewBox="0 0 1024 1024" version="1.1" xmlns="http://www.w3.org/2000/svg" p-id="7354" xmlns:xlink="http://www.w3.org/1999/xlink" width="200" height="200"><defs><style type="text/css"></style></defs><path d="M939.7 841.7L773.3 675.3c-3.1-3.1-6.4-5.8-9.9-8.2C806.6 605 832 529.4 832 448c0-212.1-171.9-384-384-384S64 235.9 64 448s171.9 384 384 384c81.4 0 157-25.4 219.1-68.6 2.4 3.5 5.1 6.8 8.2 9.9l166.4 166.4c27.1 27.1 70.9 27.1 98 0 27.1-27.1 27.1-70.9 0-98zM448 768c-43.2 0-85.1-8.5-124.5-25.1-38.1-16.1-72.3-39.2-101.7-68.6-29.4-29.4-52.5-63.6-68.6-101.7C136.5 533.1 128 491.2 128 448c0-43.2 8.5-85.1 25.1-124.5 16.1-38.1 39.2-72.3 68.6-101.7 29.4-29.4 63.6-52.5 101.7-68.6C362.9 136.5 404.8 128 448 128c43.2 0 85.1 8.5 124.5 25.1 38.1 16.1 72.3 39.2 101.7 68.6 29.4 29.4 52.5 63.6 68.6 101.7C759.5 362.9 768 404.8 768 448c0 43.2-8.5 85.1-25.1 124.5-16.1 38.1-39.2 72.3-68.6 101.7-29.4 29.4-63.6 52.5-101.7 68.6C533.1 759.5 491.2 768 448 768z" fill="#bfbbbb" p-id="7355"></path></svg>